<?xml version="1.0" encoding="iso-8859-1"?>
<!DOCTYPE svg PUBLIC "-//W3C//DTD SVG 1.1//EN" "http://www.w3.org/Graphics/SVG/1.1/DTD/svg11.dtd">
<svg version="1.1" xmlns="http://www.w3.org/2000/svg" xmlns:xlink= "http://www.w3.org/1999/xlink" x="0px" y="0px" width="350" height="143" viewBox="55 111 350 143" xml:space="preserve">
    <g id="horizontal">
        <polygon style="fill:#114F7C" points="198.474,149.992 54.431,135.995 60.294,232.03 201.714,203.06" />
        <polygon style="fill:#114F7C" points="201.573,205.354 172.925,211.834 174.532,238.146 203.765,241.205" />
        <path style="fill:#114F7C" d="M218.782,220.865c-4.406-0.276-8.164-2.823-8.334-5.649l-2.342-38.352
            c-0.172-2.826,3.248-5.775,7.592-6.54l12.027-2.119c4.34-0.763,7.953,1.265,8.148,4.479l0.523,8.568l-8.158,0.925l-0.555-9.063
            l-11.482,1.771l2.525,41.396l11.621,0.479l-0.615-10.098l8.213-0.027l0.59,9.64c0.195,3.215-3.145,5.632-7.551,5.355
            L218.782,220.865z" />
        <path style="fill:#114F7C" d="M254.45,222.576c-4.404-0.266-8.074-3.203-8.275-6.521l-3.055-50.046l8.129-1.416l3.211,52.636
        l11.623,0.454L262.72,162.6l8.131-1.416l3.41,55.872c0.227,3.708-3.205,6.527-7.611,6.261L254.45,222.576z" />
        <path style="fill:#114F7C" d="M283.933,224.364l-3.953-64.77l8.131-1.413l4.068,66.683L283.933,224.364z" />
        <path style="fill:#114F7C" d="M320.985,226.607l-1.801-29.502l-11.232,0.369l1.736,28.45l-8.246-0.5l-3.748-61.419
        c-0.25-4.073,3.111-8.036,7.453-8.793l11.693-2.033c4.344-0.757,8.129,2.28,8.404,6.736l4.1,67.199L320.985,226.607z
         M316.923,160.028l-11.152,1.697l1.783,29.198l11.217-0.612L316.923,160.028z" />
        <path style="fill:#114F7C" d="M338.608,227.676l-4.729-77.463l18.932-3.294c4.344-0.756,8.154,2.691,8.457,7.651l1.516,24.792
        c0.254,4.194-3.113,6.189-3.994,6.495c1.031,0.317,5.168,1.73,5.428,5.935l1.74,28.53c0.305,4.971-3.062,8.825-7.469,8.558
        L338.608,227.676z M353.052,154.536l-10.594,1.61l1.645,26.979l10.648-0.763L353.052,154.536z M355.878,189.785l-11.332,0.568
        l1.859,30.476l11.393,0.445L355.878,189.785z" />
        <path style="fill:#114F7C" d="M394.749,231.078l-2.221-36.39l-11.23,0.369l2.156,35.336l-8.246-0.501l-4.682-76.697
        c-0.311-5.087,2.998-9.88,7.342-10.636l11.691-2.037c4.344-0.756,8.182,3.112,8.516,8.584l5.033,82.479L394.749,231.078z
         M389.737,148.959l-11.152,1.695l2.215,36.269l11.217-0.613L389.737,148.959z" />
        <path style="fill:#FFF" d="M67.292,217.889l-4.109-67.312l18.877,1.511l0.354,5.794l-12.236-0.695l1.631,26.707l10.176-0.447
        l0.363,5.939l-10.162,0.687l1.629,26.707L67.292,217.889z" />
        <path style="fill:#FFF" d="M107.056,211.123l-5.809-22.746l-5.215,0.356l1.463,24.017l-6.523,1.11l-3.74-61.359l15.43,1.23
        c3.539,0.283,6.609,3.23,6.811,6.543l1.295,21.311c0.143,2.377-1.17,4.502-3.178,5.663l6.258,22.721L107.056,211.123z
         M102.81,159.136l-8.609-0.488l1.512,24.83l8.553-0.398L102.81,159.136z" />
        <path style="fill:#FFF" d="M164.692,201.317l-2.344-38.807l-9.787-0.555l2.479,41.002l-6.521,1.11l-2.84-46.901l6.625,0.53
        l0.154,2.542c0.803-1.65,2.205-2.353,5.111-2.119l4.9,0.391c3.539,0.281,6.562,2.512,6.711,4.948l2.215,36.716L164.692,201.317z" />
        <path style="fill:#FFF" d="M183.37,198.138l-2.08-34.553l-7.162-0.405l-0.225-3.755l21.059,1.683l0.193,3.266l-7.158-0.407
        l1.984,33.045L183.37,198.138z" />
        <path style="fill:#FFF" d="M179.327,236.081l-1.439-21.947l3.428-0.763l1.482,22.895L179.327,236.081z" />
        <path style="fill:#FFF" d="M195.388,236.934l-1.473-23.853l-5.078,0.996l1.418,22.582l-3.467-0.184l-1.529-23.981l3.432-0.762
        l0.086,1.399c0.412-1.048,1.137-1.671,2.637-2.004l2.535-0.566c1.836-0.407,3.418,0.585,3.518,2.2l1.486,24.36L195.388,236.934z" />
        <polygon style="fill:#114F7C" points="388.167,137.436 396.843,113.927 390.562,111.608 380.546,138.747" />
        <polygon style="fill:#114F7C" points="346.491,231.023 338.872,251.662 345.155,253.982 353.46,231.482" />
        <path style="fill:#004564" d="M390.562,111.608" />
        <path style="fill:#FFF" d="M138.71,161.394c-0.174-2.885-3.223-5.485-6.764-5.778l-9.803-0.805
        c-3.539-0.29-6.281,2.108-6.088,5.321l2.648,43.596c0.195,3.216,3.215,5.361,6.699,4.759l9.65-1.665
        c3.486-0.601,6.201-3.458,6.027-6.34L138.71,161.394z M134.187,202.562c-1.008,0.81-2.227,1.278-3.523,1.357
        c-1.299,0.078-2.566-0.24-3.668-0.922c-1.734-1.068-2.844-2.92-2.967-4.952c-0.117-1.942,0.678-3.829,2.139-5.103l-1.76-29.021
        c-0.127-2.104,1.48-3.918,3.584-4.045c1.021-0.062,2.004,0.277,2.768,0.953c0.764,0.671,1.219,1.605,1.279,2.63l1.76,29.021
        c1.604,1.087,2.619,2.864,2.738,4.807C136.659,199.319,135.78,201.291,134.187,202.562z" />
        <path style="fill:#E30613" d="M131.714,193.927l-1.248-20.593c-0.027-0.456-0.238-0.858-0.555-1.138
        c-0.318-0.281-0.742-0.44-1.197-0.412c-0.91,0.055-1.605,0.837-1.551,1.75l1.248,20.593c-1.398,0.722-2.316,2.218-2.215,3.89
        c0.137,2.261,2.08,3.982,4.34,3.846c2.26-0.138,3.98-2.081,3.844-4.341C134.278,195.849,133.188,194.475,131.714,193.927z" />
        <g>
            <rect x="119.707" y="169.441" transform="matrix(-0.9981 0.0621 -0.0621 -0.9981 253.5952 332.3241)" style="fill:#114F7C" width="3.853" height="1.324" />
            <rect x="119.961" y="173.662" transform="matrix(-0.9981 0.0621 -0.0621 -0.9981 254.3822 340.7408)" style="fill:#114F7C" width="3.868" height="1.325" />
            <rect x="120.214" y="177.884" transform="matrix(-0.9981 0.0621 -0.0621 -0.9981 255.1655 349.1597)" style="fill:#114F7C" width="3.883" height="1.324" />
            <rect x="120.467" y="182.105" transform="matrix(-0.9981 0.0621 -0.0621 -0.9981 255.9507 357.5765)" style="fill:#114F7C" width="3.898" height="1.325" />
            <rect x="120.719" y="186.328" transform="matrix(-0.9981 0.0619 -0.0619 -0.9981 256.6876 366.0288)" style="fill:#114F7C" width="3.914" height="1.323" />
            <rect x="120.972" y="190.549" transform="matrix(-0.9981 0.0621 -0.0621 -0.9981 257.5175 374.4133)" style="fill:#114F7C" width="3.928" height="1.324" />
        </g>
    </g>
</svg>